{"title":"War.Pigs.2015.WEBRip.XViD-Sorrow","uid":12152812,"size":780193448,"categoryP":"video","categoryS":"movies","magnet":"?xt=urn:btih:b3a645d3f43ea7c3b1786d3895d3807a4aba8207&amp;dn=War.Pigs.2015.WEBRip.XViD-Sorrow&amp;tr=udp%3A%2F%2Ftracker.openbittorrent.com%3A80&amp;tr=udp%3A%2F%2Fopen.demonii.com%3A1337&amp;tr=udp%3A%2F%2Ftracker.coppersurfer.tk%3A6969&amp;tr=udp%3A%2F%2Fexodus.desync.com%3A6969","seeders":1,"leechers":2,"uploader":null,"files":2,"time":1437680210,"description":"War Pigs 2015 WEBRip XViD-Sorrow\n\nGeneral\nComplete name                            : War.Pigs.2015.WEBRip.XViD-Sorrow.avi\nFormat                                   : AVI\nFormat/Info                              : Audio Video Interleave\nFile size                                : 744 MiB\nDuration                                 : 1h 31mn\nOverall bit rate                         : 1 137 Kbps\nWriting application                      : Lavf55.19.104\n\nVideo\nID                                       : 0\nFormat                                   : MPEG-4 Visual\nFormat profile                           : Simple@L3\nFormat settings, BVOP                    : No\nFormat settings, QPel                    : No\nFormat settings, GMC                     : No warppoints\nFormat settings, Matrix                  : Default (H.263)\nCodec ID                                 : XVID\nCodec ID/Hint                            : XviD\nDuration                                 : 1h 31mn\nBit rate                                 : 997 Kbps\nWidth                                    : 720 pixels\nHeight                                   : 400 pixels\nDisplay aspect ratio                     : 16:9\nFrame rate                               : 23.976 fps\nColor space                              : YUV\nChroma subsampling                       : 4:2:0\nBit depth                                : 8 bits\nScan type                                : Progressive\nCompression mode                         : Lossy\nBits/(Pixel*Frame)                       : 0.144\nStream size                              : 652 MiB (88%)\nWriting library                          : XviD 64\n\nAudio\nID                                       : 1\nFormat                                   : MPEG Audio\nFormat version                           : Version 1\nFormat profile                           : Layer 3\nMode                                     : Joint stereo\nMode extension                           : MS Stereo\nCodec ID                                 : 55\nCodec ID/Hint                            : MP3\nDuration                                 : 1h 31mn\nBit rate mode                            : Constant\nBit rate                                 : 128 Kbps\nChannel count                            : 2 channels\nSampling rate                            : 48.0 KHz\nCompression mode                         : Lossy\nStream size                              : 83.7 MiB (11%)\nAlignment                                : Aligned on interleaves\nInterleave, duration                     : 24 ms (0.58 video frame)\n\n\n\nAction:War\n\nA rag tag unit of misfits known as the War Pigs must go behind enemy lines to exterminate Nazis by any means necessary.\n\n\nDirector: Ryan Little \n\nWriters: Adam Emerson, Andrew Kightlinger (story), 1 more credit Â» \n\nStars: Dolph Lundgren, Mickey Rourke, Ryan Kelley\n\n &lt;a href=&quot;\nhttp://www.imdb.com/title/tt3779300/&quot; rel=&quot;nofollow&quot; target=&quot;_NEW&quot;&gt;\nhttp://www.imdb.com/title/tt3779300/&lt;/a&gt;","torrent":{"xt":"urn:btih:b3a645d3f43ea7c3b1786d3895d3807a4aba8207","amp;dn":"War.Pigs.2015.WEBRip.XViD-Sorrow","amp;tr":["udp%3A%2F%2Ftracker.openbittorrent.com%3A80","udp%3A%2F%2Fopen.demonii.com%3A1337","udp%3A%2F%2Ftracker.coppersurfer.tk%3A6969","udp%3A%2F%2Fexodus.desync.com%3A6969"],"infoHash":"b3a645d3f43ea7c3b1786d3895d3807a4aba8207","infoHashBuffer":{"type":"Buffer","data":[179,166,69,211,244,62,167,195,177,120,109,56,149,211,128,122,74,186,130,7]},"announce":[],"urlList":[]}}